<svg width="20" height="20" viewBox="0 0 20 20" fill="none" xmlns="http://www.w3.org/2000/svg">
<path d="M18.9463 10.99C19.1444 9.20057 18.8013 7.39285 17.9613 5.80047C17.1212 4.20809 15.823 2.90425 14.2342 2.05744C12.6454 1.21063 10.8392 0.859777 9.04889 1.05023C7.25863 1.24069 5.56663 1.96369 4.19157 3.12581C2.81651 4.28793 1.82158 5.83574 1.33538 7.56921C0.849178 9.30268 0.894043 11.1421 1.46418 12.8498C2.03431 14.5575 3.10351 16.055 4.5336 17.1487C5.96368 18.2424 7.68891 18.8821 9.48633 18.985M1.60033 7.00001H18.4003M1.60033 13H15.5003" stroke="#0080EF" stroke-width="1.5" stroke-linecap="round" stroke-linejoin="round"/>
<path d="M9.50065 1C7.81599 3.69961 6.92285 6.81787 6.92285 10C6.92285 13.1821 7.81599 16.3004 9.50065 19M10.5006 1C12.732 4.57555 13.5556 8.8525 12.8116 13.001M13.0006 17L15.0006 19L19.0006 15" stroke="#0080EF" stroke-width="1.5" stroke-linecap="round" stroke-linejoin="round"/>
</svg>
