<svg width="20.000000" height="20.000000" viewBox="0 0 20 20" fill="none" xmlns="http://www.w3.org/2000/svg" xmlns:xlink="http://www.w3.org/1999/xlink">
	<desc>
			Created with Pixso.
	</desc>
	<defs>
		<clipPath id="clip315_8427">
			<rect id="General / Eye" rx="-0.416667" width="19.166666" height="19.166666" transform="translate(0.416667 0.416667)" fill="white" fill-opacity="0"/>
		</clipPath>
	</defs>
	<g clip-path="url(#clip315_8427)">
		<rect id="Icon Frame" rx="-0.416667" width="19.166666" height="19.166666" transform="translate(0.416667 0.416667)" fill="#FFFFFF" fill-opacity="0"/>
		<path id="Vector" d="M10 12.5C8.61 12.5 7.5 11.38 7.5 10C7.5 8.61 8.61 7.5 10 7.5C11.37 7.5 12.5 8.61 12.5 10C12.5 11.38 11.37 12.5 10 12.5ZM10 4.16C13.88 4.16 17 6.58 18.32 10C17 13.41 13.88 15.83 10 15.83C6.1 15.83 3 13.41 1.66 10C3 6.58 6.1 4.16 10 4.16Z" stroke="#848382" stroke-opacity="1.000000" stroke-width="1.500000" stroke-linejoin="round"/>
	</g>
</svg>
