<svg width="16" height="17" viewBox="0 0 16 17" fill="none" xmlns="http://www.w3.org/2000/svg">
<path fill-rule="evenodd" clip-rule="evenodd" d="M3.97536 1.78772C3.22943 1.78772 2.51403 2.08397 1.98647 2.61132C1.45892 3.13867 1.1624 3.85396 1.16211 4.59989V12.1019C1.16211 12.848 1.4585 13.5636 1.98609 14.0912C2.51368 14.6187 3.22924 14.9151 3.97536 14.9151H11.4774C12.2233 14.9149 12.9386 14.6183 13.4659 14.0908C13.9933 13.5632 14.2895 12.8478 14.2895 12.1019V4.59989C14.2892 3.85414 13.9929 3.13902 13.4655 2.6117C12.9382 2.08438 12.2231 1.78801 11.4774 1.78772H3.97536ZM12.2865 4.60421C12.2865 4.81911 12.2012 5.0252 12.0492 5.17716C11.8973 5.32911 11.6912 5.41448 11.4763 5.41448C11.2614 5.41448 11.0553 5.32911 10.9033 5.17716C10.7514 5.0252 10.666 4.81911 10.666 4.60421C10.666 4.38931 10.7514 4.18322 10.9033 4.03126C11.0553 3.87931 11.2614 3.79394 11.4763 3.79394C11.6912 3.79394 11.8973 3.87931 12.0492 4.03126C12.2012 4.18322 12.2865 4.38931 12.2865 4.60421ZM7.72744 6.10375C7.13146 6.10375 6.55989 6.3405 6.13847 6.76192C5.71705 7.18334 5.4803 7.75491 5.4803 8.35089C5.4803 8.94687 5.71705 9.51844 6.13847 9.93986C6.55989 10.3613 7.13146 10.598 7.72744 10.598C8.32342 10.598 8.89499 10.3613 9.31641 9.93986C9.73783 9.51844 9.97458 8.94687 9.97458 8.35089C9.97458 7.75491 9.73783 7.18334 9.31641 6.76192C8.89499 6.3405 8.32342 6.10375 7.72744 6.10375ZM4.39886 8.35089C4.39886 7.46838 4.74943 6.62202 5.37346 5.99799C5.99749 5.37396 6.84385 5.02339 7.72636 5.02339C8.60887 5.02339 9.45523 5.37396 10.0793 5.99799C10.7033 6.62202 11.0539 7.46838 11.0539 8.35089C11.0539 9.2334 10.7033 10.0798 10.0793 10.7038C9.45523 11.3278 8.60887 11.6784 7.72636 11.6784C6.84385 11.6784 5.99749 11.3278 5.37346 10.7038C4.74943 10.0798 4.39886 9.2334 4.39886 8.35089Z" fill="#0080EF"/>
</svg>
