<svg width="20" height="22" viewBox="0 0 20 22" fill="none" xmlns="http://www.w3.org/2000/svg">
<path d="M19 21L16.853 18.853M16.853 18.853C17.4957 18.21 17.8568 17.3381 17.857 16.429C17.8571 15.6356 17.5821 14.8668 17.0788 14.2535C16.5756 13.6402 15.8752 13.2204 15.0971 13.0656C14.319 12.9107 13.5113 13.0305 12.8116 13.4045C12.112 13.7785 11.5636 14.3835 11.26 15.1165C10.9564 15.8494 10.9164 16.665 11.1467 17.4242C11.3771 18.1834 11.8635 18.8392 12.5232 19.2799C13.1829 19.7206 13.975 19.9189 14.7645 19.8411C15.554 19.7632 16.2921 19.414 16.853 18.853Z" stroke="#0080EF" stroke-width="1.5" stroke-linecap="round" stroke-linejoin="round"/>
<path d="M9 21H8.727C5.467 21 3.835 21 2.703 20.202C2.38085 19.9761 2.0929 19.705 1.848 19.397C1 18.331 1 16.797 1 13.727V11.182C1 8.219 1 6.737 1.469 5.554C2.223 3.651 3.817 2.151 5.839 1.441C7.095 1 8.668 1 11.818 1C13.616 1 14.516 1 15.234 1.252C16.389 1.658 17.3 2.515 17.731 3.602C18 4.278 18 5.125 18 6.818V11" stroke="#0080EF" stroke-width="1.5" stroke-linecap="round" stroke-linejoin="round"/>
<path d="M1 11C1 10.116 1.35115 9.26827 1.97621 8.64321C2.60127 8.01815 3.44903 7.667 4.333 7.667C4.999 7.667 5.784 7.783 6.431 7.61C6.71371 7.53392 6.97145 7.38485 7.17838 7.17774C7.38531 6.97064 7.53416 6.71277 7.61 6.43C7.783 5.783 7.667 4.998 7.667 4.332C7.66726 3.44821 8.01854 2.6007 8.64357 1.97586C9.2686 1.35102 10.1162 1 11 1" stroke="#0080EF" stroke-width="1.5" stroke-linecap="round" stroke-linejoin="round"/>
</svg>
