<svg width="20" height="20" viewBox="0 0 20 20" fill="none" xmlns="http://www.w3.org/2000/svg">
<g clip-path="url(#clip0_317_13157)">
<path d="M16.8621 4.7382C17.2221 3.74237 16.2571 2.77737 15.2613 3.13821L3.09046 7.53987C2.09129 7.90154 1.97046 9.26487 2.88963 9.79737L6.77463 12.0465L10.2438 8.57737C10.401 8.42557 10.6115 8.34158 10.83 8.34348C11.0485 8.34538 11.2575 8.43302 11.412 8.58752C11.5665 8.74203 11.6541 8.95104 11.656 9.16954C11.6579 9.38803 11.5739 9.59854 11.4221 9.7557L7.95296 13.2249L10.203 17.1099C10.7346 18.029 12.098 17.9074 12.4596 16.909L16.8621 4.7382Z" fill="#848382"/>
</g>
<defs>
<clipPath id="clip0_317_13157">
<rect width="20" height="20" fill="white"/>
</clipPath>
</defs>
</svg>
