<svg width="30" height="31" viewBox="0 0 30 31" fill="none" xmlns="http://www.w3.org/2000/svg">
<path d="M3.75 27.6875H6.5625V30.5H3.75C1.68164 30.5 0 28.8184 0 26.75V4.25C0 2.18164 1.68164 0.5 3.75 0.5H13.4473C14.4434 0.5 15.3984 0.892578 16.1016 1.5957L21.4043 6.89844C22.1074 7.60156 22.5 8.55664 22.5 9.55273V18.3125H19.6875V9.875H15C13.9629 9.875 13.125 9.03711 13.125 8V3.3125H3.75C3.23437 3.3125 2.8125 3.73437 2.8125 4.25V26.75C2.8125 27.2656 3.23437 27.6875 3.75 27.6875ZM10.3125 21.125H12.1875C13.998 21.125 15.4688 22.5957 15.4688 24.4062C15.4688 26.2168 13.998 27.6875 12.1875 27.6875H11.25V29.5625C11.25 30.0781 10.8281 30.5 10.3125 30.5C9.79687 30.5 9.375 30.0781 9.375 29.5625V22.0625C9.375 21.5469 9.79687 21.125 10.3125 21.125ZM12.1875 25.8125C12.9668 25.8125 13.5938 25.1855 13.5938 24.4062C13.5938 23.627 12.9668 23 12.1875 23H11.25V25.8125H12.1875ZM17.8125 21.125H19.6875C21.2402 21.125 22.5 22.3848 22.5 23.9375V27.6875C22.5 29.2402 21.2402 30.5 19.6875 30.5H17.8125C17.2969 30.5 16.875 30.0781 16.875 29.5625V22.0625C16.875 21.5469 17.2969 21.125 17.8125 21.125ZM19.6875 28.625C20.2031 28.625 20.625 28.2031 20.625 27.6875V23.9375C20.625 23.4219 20.2031 23 19.6875 23H18.75V28.625H19.6875ZM24.375 22.0625C24.375 21.5469 24.7969 21.125 25.3125 21.125H28.125C28.6406 21.125 29.0625 21.5469 29.0625 22.0625C29.0625 22.5781 28.6406 23 28.125 23H26.25V24.875H28.125C28.6406 24.875 29.0625 25.2969 29.0625 25.8125C29.0625 26.3281 28.6406 26.75 28.125 26.75H26.25V29.5625C26.25 30.0781 25.8281 30.5 25.3125 30.5C24.7969 30.5 24.375 30.0781 24.375 29.5625V22.0625Z" fill="#0080EF"/>
</svg>
