<svg width="26" height="25" viewBox="0 0 26 25" fill="none" xmlns="http://www.w3.org/2000/svg">
<path d="M20.5 19.0625H21.9062C22.5273 19.0606 23.1223 18.8131 23.5615 18.374C24.0006 17.9348 24.2481 17.3398 24.25 16.7188V7.34375C24.2481 6.72272 24.0006 6.12765 23.5615 5.68852C23.1223 5.24938 22.5273 5.00185 21.9062 5H4.09375C3.47272 5.00185 2.87765 5.24938 2.43852 5.68852C1.99938 6.12765 1.75185 6.72272 1.75 7.34375V16.7188C1.75185 17.3398 1.99938 17.9348 2.43852 18.374C2.87765 18.8131 3.47272 19.0606 4.09375 19.0625H5.5" stroke="#0080EF" stroke-width="1.875" stroke-linejoin="round"/>
<path d="M19.075 11.5625H6.925C6.13799 11.5625 5.5 12.2005 5.5 12.9875V22.325C5.5 23.112 6.13799 23.75 6.925 23.75H19.075C19.862 23.75 20.5 23.112 20.5 22.325V12.9875C20.5 12.2005 19.862 11.5625 19.075 11.5625Z" stroke="#0080EF" stroke-width="1.875" stroke-linejoin="round"/>
<path d="M20.5 5V3.59375C20.4981 2.97272 20.2506 2.37765 19.8115 1.93852C19.3723 1.49938 18.7773 1.25185 18.1562 1.25H7.84375C7.22272 1.25185 6.62765 1.49938 6.18852 1.93852C5.74938 2.37765 5.50185 2.97272 5.5 3.59375V5" stroke="#0080EF" stroke-width="1.875" stroke-linejoin="round"/>
<path d="M20.9688 9.6875C21.7454 9.6875 22.375 9.0579 22.375 8.28125C22.375 7.5046 21.7454 6.875 20.9688 6.875C20.1921 6.875 19.5625 7.5046 19.5625 8.28125C19.5625 9.0579 20.1921 9.6875 20.9688 9.6875Z" fill="#0080EF"/>
</svg>
