<svg width="28" height="25" viewBox="0 0 28 25" fill="none" xmlns="http://www.w3.org/2000/svg">
<path d="M14.0992 0.312514C8.10669 0.312514 3.18169 4.89126 2.70169 10.7288H1.50044C1.31458 10.7287 1.13289 10.7838 0.978445 10.8872C0.824002 10.9906 0.703777 11.1376 0.633045 11.3095C0.562312 11.4814 0.544263 11.6704 0.581191 11.8525C0.618119 12.0347 0.708357 12.2018 0.840442 12.3325L2.94044 14.415C3.11602 14.5891 3.35323 14.6867 3.60044 14.6867C3.84766 14.6867 4.08487 14.5891 4.26044 14.415L6.36044 12.3325C6.49253 12.2018 6.58277 12.0347 6.61969 11.8525C6.65662 11.6704 6.63857 11.4814 6.56784 11.3095C6.49711 11.1376 6.37688 10.9906 6.22244 10.8872C6.068 10.7838 5.8863 10.7287 5.70044 10.7288H4.58419C5.05919 5.94001 9.13169 2.18751 14.0992 2.18751C15.737 2.18412 17.3483 2.601 18.7789 3.39828C20.2096 4.19557 21.4118 5.3466 22.2704 6.74126C22.3333 6.84947 22.4172 6.94401 22.5171 7.0193C22.6171 7.09458 22.7311 7.1491 22.8524 7.17963C22.9738 7.21016 23.1 7.21608 23.2237 7.19706C23.3474 7.17803 23.466 7.13443 23.5726 7.06884C23.6791 7.00325 23.7715 6.91699 23.8442 6.81514C23.9169 6.71329 23.9685 6.59792 23.9959 6.47583C24.0233 6.35373 24.026 6.22738 24.0038 6.10423C23.9816 5.98108 23.935 5.86362 23.8667 5.75876C22.8404 4.09162 21.4036 2.71554 19.6938 1.76203C17.984 0.808524 16.0569 0.309454 14.0992 0.312514ZM25.0517 10.5838C24.8762 10.4105 24.6395 10.3133 24.3929 10.3133C24.1463 10.3133 23.9097 10.4105 23.7342 10.5838L21.6254 12.6663C21.493 12.7969 21.4024 12.9639 21.3652 13.1462C21.328 13.3284 21.3458 13.5176 21.4164 13.6897C21.4871 13.8618 21.6073 14.009 21.7618 14.1126C21.9163 14.2161 22.0982 14.2714 22.2842 14.2713H23.4079C22.9304 19.0588 18.8442 22.8125 13.8529 22.8125C12.21 22.8171 10.5932 22.4009 9.15672 21.6035C7.72021 20.8062 6.51182 19.6543 5.64669 18.2575C5.58202 18.1527 5.49733 18.0617 5.39747 17.9896C5.2976 17.9175 5.18452 17.8658 5.06468 17.8374C4.94483 17.809 4.82057 17.8045 4.69899 17.8242C4.5774 17.8438 4.46088 17.8872 4.35607 17.9519C4.14439 18.0825 3.99327 18.2919 3.93596 18.5339C3.87864 18.7759 3.91982 19.0308 4.05044 19.2425C5.08362 20.9114 6.52691 22.2881 8.24281 23.2412C9.95872 24.1943 11.8901 24.6922 13.8529 24.6875C19.8629 24.6875 24.8092 20.1125 25.2904 14.2713H26.5004C26.6865 14.2714 26.8683 14.2161 27.0228 14.1126C27.1773 14.009 27.2976 13.8618 27.3682 13.6897C27.4388 13.5176 27.4567 13.3284 27.4194 13.1462C27.3822 12.9639 27.2916 12.7969 27.1592 12.6663L25.0517 10.5838Z" fill="#0080EF"/>
</svg>
