<svg width="20" height="20" viewBox="0 0 20 20" fill="none" xmlns="http://www.w3.org/2000/svg">
<g clip-path="url(#clip0_59_3778)">
<path fill-rule="evenodd" clip-rule="evenodd" d="M9.04301 13.3351C9.13096 13.2473 9.25014 13.198 9.37441 13.1979C9.49869 13.1978 9.61792 13.247 9.70598 13.3347L9.71887 13.3482C9.76434 13.3912 9.80072 13.443 9.82588 13.5003C9.85103 13.5576 9.86444 13.6194 9.86532 13.682C9.8662 13.7446 9.85453 13.8068 9.83099 13.8648C9.80746 13.9228 9.77254 13.9755 9.7283 14.0198C9.68405 14.0642 9.63138 14.0991 9.5734 14.1228C9.51541 14.1464 9.45328 14.1581 9.39067 14.1573C9.32806 14.1565 9.26625 14.1432 9.20888 14.1181C9.15151 14.0931 9.09975 14.0567 9.05664 14.0113L9.0434 13.9984C8.95548 13.9105 8.90605 13.7912 8.90598 13.6669C8.90591 13.5425 8.95519 13.4232 9.04301 13.3351ZM9.8516 13.2028C9.89511 13.2464 9.94678 13.281 10.0037 13.3046C10.0605 13.3281 10.1215 13.3403 10.1831 13.3403C10.2447 13.3403 10.3056 13.3281 10.3625 13.3046C10.4194 13.281 10.4711 13.2464 10.5146 13.2028L11.3751 12.3423C11.4192 12.2989 11.4543 12.2472 11.4783 12.1902C11.5024 12.1332 11.5149 12.072 11.5151 12.0101C11.5154 11.9482 11.5034 11.8869 11.4798 11.8297C11.4563 11.7725 11.4216 11.7205 11.3779 11.6767C11.3341 11.6329 11.2821 11.5983 11.2249 11.5747C11.1677 11.5511 11.1064 11.5391 11.0445 11.5394C10.9826 11.5396 10.9214 11.5521 10.8644 11.5761C10.8074 11.6002 10.7557 11.6352 10.7123 11.6793L9.85156 12.5398C9.80803 12.5834 9.77349 12.6351 9.74993 12.6919C9.72637 12.7488 9.71424 12.8098 9.71424 12.8713C9.71424 12.9329 9.72637 12.9939 9.74993 13.0507C9.77349 13.1076 9.80807 13.1593 9.8516 13.2028ZM12.2564 10.0348C12.3447 9.94669 12.4608 9.89187 12.585 9.87973C12.7092 9.86758 12.8337 9.89887 12.9374 9.96825C13.0411 10.0376 13.1176 10.1408 13.1537 10.2602C13.1899 10.3797 13.1835 10.5079 13.1357 10.6232C13.0879 10.7384 13.0016 10.8335 12.8916 10.8923C12.7815 10.9511 12.6545 10.9699 12.5321 10.9455C12.4098 10.9211 12.2996 10.8551 12.2205 10.7586C12.1414 10.6622 12.0981 10.5413 12.0981 10.4165C12.0979 10.3456 12.1118 10.2753 12.139 10.2098C12.1662 10.1443 12.2061 10.0848 12.2564 10.0348ZM12.638 11.8939C12.2963 11.8939 11.9651 11.7754 11.7009 11.5586C11.4368 11.3419 11.2559 11.0402 11.1892 10.705C11.1225 10.3699 11.1741 10.022 11.3352 9.72058C11.4962 9.41919 11.7568 9.18296 12.0725 9.05215C12.3882 8.92134 12.7395 8.90404 13.0665 9.0032C13.3936 9.10236 13.6761 9.31184 13.866 9.59595C14.0559 9.88006 14.1414 10.2212 14.1079 10.5613C14.0745 10.9014 13.9242 11.2194 13.6826 11.4611C13.5457 11.5987 13.3829 11.7078 13.2036 11.7821C13.0243 11.8564 12.8321 11.8944 12.638 11.8939ZM11.3297 2.72234C11.3297 2.59802 11.3791 2.4788 11.467 2.39089C11.5549 2.30298 11.6741 2.25359 11.7984 2.25359H17.3341C17.4584 2.25359 17.5776 2.30298 17.6655 2.39089C17.7534 2.4788 17.8028 2.59802 17.8028 2.72234C17.8028 2.84666 17.7534 2.96589 17.6655 3.0538C17.5776 3.14171 17.4584 3.19109 17.3341 3.19109H11.7985C11.6742 3.19109 11.5549 3.14171 11.467 3.0538C11.3791 2.96589 11.3297 2.84666 11.3297 2.72234ZM5.3375 2.72234C5.3375 2.66077 5.34963 2.5998 5.3732 2.54292C5.39677 2.48603 5.43131 2.43435 5.47486 2.39082C5.51841 2.34729 5.57011 2.31276 5.627 2.28922C5.6839 2.26567 5.74487 2.25357 5.80645 2.25359H5.83484C5.95916 2.25359 6.07839 2.30298 6.1663 2.39089C6.25421 2.4788 6.30359 2.59802 6.30359 2.72234C6.30359 2.84666 6.25421 2.96589 6.1663 3.0538C6.07839 3.14171 5.95916 3.19109 5.83484 3.19109H5.80645C5.74487 3.19112 5.6839 3.17901 5.627 3.15547C5.57011 3.13192 5.51841 3.0974 5.47486 3.05387C5.43131 3.01034 5.39677 2.95866 5.3732 2.90177C5.34963 2.84489 5.3375 2.78392 5.3375 2.72234ZM3.7641 2.72234C3.7641 2.59802 3.81349 2.4788 3.9014 2.39089C3.9893 2.30298 4.10853 2.25359 4.23285 2.25359H4.26141C4.38573 2.25359 4.50495 2.30298 4.59286 2.39089C4.68077 2.4788 4.73016 2.59802 4.73016 2.72234C4.73016 2.84666 4.68077 2.96589 4.59286 3.0538C4.50495 3.14171 4.38573 3.19109 4.26141 3.19109H4.23285C4.10853 3.19109 3.9893 3.14171 3.9014 3.0538C3.81349 2.96589 3.7641 2.84666 3.7641 2.72234ZM2.19066 2.72234C2.19066 2.59802 2.24005 2.4788 2.32796 2.39089C2.41587 2.30298 2.53509 2.25359 2.65941 2.25359H2.68797C2.81229 2.25359 2.93152 2.30298 3.01942 2.39089C3.10733 2.4788 3.15672 2.59802 3.15672 2.72234C3.15672 2.84666 3.10733 2.96589 3.01942 3.0538C2.93152 3.14171 2.81229 3.19109 2.68797 3.19109H2.65945C2.53513 3.19109 2.4159 3.14171 2.328 3.0538C2.24009 2.96589 2.19066 2.84666 2.19066 2.72234ZM18.5517 14.9277C18.6863 14.9275 18.8154 14.874 18.9106 14.7788C19.0058 14.6836 19.0593 14.5545 19.0595 14.4199V5.44887H0.934492V14.42C0.934606 14.5547 0.988144 14.6838 1.08335 14.779C1.17856 14.8742 1.30766 14.9277 1.4423 14.9279H5.10285C5.17197 14.7419 5.24303 14.559 5.31605 14.3791H3.51918C3.4463 14.3791 3.37443 14.3621 3.30926 14.3295C3.2441 14.2968 3.18745 14.2494 3.14381 14.1911C3.10016 14.1327 3.07073 14.065 3.05784 13.9932C3.04495 13.9215 3.04897 13.8478 3.06957 13.7779C3.48802 12.3516 4.3139 11.0787 5.44578 10.1153C5.53062 10.0431 5.63838 10.0034 5.7498 10.0033H7.93922C10.0337 7.63922 12.8041 6.41441 16.226 6.35094C16.289 6.34984 16.3516 6.36145 16.4101 6.38507C16.4685 6.40869 16.5216 6.44384 16.5662 6.48842C16.6108 6.533 16.6459 6.5861 16.6695 6.64455C16.6931 6.703 16.7047 6.76561 16.7036 6.82863C16.6415 10.1492 15.4869 12.8564 13.2583 14.9277H18.5517ZM9.61293 18.8773V17.329C10.491 16.9221 11.3284 16.4326 12.1138 15.8672V17.1286C11.426 17.8964 10.5701 18.4949 9.61293 18.8773V18.8773ZM7.24738 17.27L5.78453 15.8071C5.95018 15.3207 6.12714 14.8556 6.31539 14.4118C6.89899 14.5052 7.43819 14.7805 7.85609 15.1984C8.27399 15.6163 8.54925 16.1555 8.64262 16.7391C8.19855 16.9275 7.73348 17.1044 7.24738 17.27ZM4.07469 18.9798C5.04648 18.909 5.72934 18.4419 6.18836 17.5368L5.51766 16.8661C4.61254 17.3251 4.14523 18.0082 4.07469 18.9798ZM5.72539 13.4414H4.17703C4.55952 12.4843 5.15804 11.6284 5.92586 10.9408H7.18715C6.62177 11.7261 6.13232 12.5634 5.72539 13.4414ZM12.0188 8.13598C9.76844 9.10082 8.01102 10.8923 6.71488 13.5356C7.39741 13.6946 8.02178 14.0415 8.51733 14.537C9.01287 15.0326 9.35978 15.657 9.51879 16.3395C12.1622 15.0437 13.9536 13.2864 14.9184 11.0355C14.697 9.40738 13.6473 8.35781 12.0188 8.13598ZM15.4325 9.49027C15.6054 8.77368 15.7111 8.0425 15.7481 7.30625C15.0119 7.34337 14.2807 7.44904 13.5641 7.62188C14.3844 8.00952 15.0448 8.6699 15.4325 9.49027ZM1.44238 0.933594C1.30774 0.933718 1.17865 0.987259 1.08344 1.08247C0.988236 1.17767 0.934694 1.30676 0.93457 1.44141V4.51121H19.0596V1.44141C19.0594 1.30678 19.0058 1.17772 18.9106 1.08252C18.8154 0.987327 18.6864 0.933769 18.5518 0.933594H1.44238ZM18.5518 -0.00390625H1.44238C1.05919 -0.00348234 0.691818 0.148927 0.420861 0.419884C0.149904 0.690841 -0.00250578 1.05822 -0.00292969 1.44141V14.42C-0.00254706 14.8032 0.149849 15.1706 0.420815 15.4416C0.691781 15.7126 1.05918 15.865 1.44238 15.8654H4.78434C4.76917 15.9703 4.78982 16.0773 4.84293 16.169C4.34047 16.467 3.9441 16.8392 3.6609 17.2814C3.27285 17.8869 3.09559 18.6245 3.13281 19.4741C3.13792 19.5912 3.18671 19.7021 3.26957 19.785C3.35243 19.8678 3.46333 19.9166 3.58039 19.9217C3.65426 19.9248 3.72688 19.9263 3.79914 19.9263C4.55695 19.9263 5.2198 19.7476 5.77293 19.3936C6.21516 19.1104 6.58738 18.7139 6.88551 18.2116C6.94256 18.2448 7.00599 18.2655 7.07163 18.2725C7.13727 18.2795 7.20364 18.2726 7.26641 18.2521C7.75503 18.0923 8.22465 17.9212 8.67527 17.7386V19.5354C8.67522 19.597 8.68731 19.658 8.71085 19.7149C8.73439 19.7718 8.76892 19.8235 8.81245 19.867C8.85599 19.9105 8.90769 19.9451 8.96458 19.9686C9.02147 19.9921 9.08245 20.0042 9.14402 20.0042C9.18887 20.0042 9.23349 19.9978 9.27648 19.985C10.7027 19.5667 11.9757 18.7409 12.9391 17.609C13.0115 17.5241 13.0512 17.4162 13.0513 17.3047V15.8652H18.5517C18.9349 15.8648 19.3023 15.7124 19.5732 15.4415C19.8442 15.1705 19.9966 14.8031 19.997 14.4199V1.44141C19.9965 1.05823 19.8441 0.690869 19.5732 0.419918C19.3022 0.148968 18.9349 -0.00345139 18.5517 -0.00390625H18.5518Z" fill="#0080EF"/>
</g>
<defs>
<clipPath id="clip0_59_3778">
<rect width="20" height="20" fill="white"/>
</clipPath>
</defs>
</svg>
