<svg width="22" height="22" viewBox="0 0 22 22" fill="none" xmlns="http://www.w3.org/2000/svg">
<path d="M5.74023 13.11H5.76022H16.2702" stroke="#0080EF" stroke-width="1.5" stroke-linecap="round" stroke-linejoin="round"/>
<path d="M6.26022 1H15.7302C16.3802 1 16.9602 1.02003 17.4802 1.09003C20.2502 1.40003 21.0002 2.70001 21.0002 6.26001V12.58C21.0002 16.14 20.2502 17.44 17.4802 17.75C16.9602 17.82 16.3902 17.84 15.7302 17.84H6.26022C5.61022 17.84 5.03022 17.82 4.51022 17.75C1.74022 17.44 0.990234 16.14 0.990234 12.58V6.26001C0.990234 2.70001 1.74022 1.40003 4.51022 1.09003C5.03022 1.02003 5.61022 1 6.26022 1Z" stroke="#0080EF" stroke-width="1.5" stroke-linecap="round" stroke-linejoin="round"/>
<path d="M12.5801 7.32001H16.2601" stroke="#0080EF" stroke-width="1.5" stroke-linecap="round" stroke-linejoin="round"/>
<path d="M6 21H16" stroke="#0080EF" stroke-width="1.5" stroke-linecap="round" stroke-linejoin="round"/>
<path d="M6.1947 7.29999H6.20368" stroke="#0080EF" stroke-width="2" stroke-linecap="round" stroke-linejoin="round"/>
<path d="M9.49451 7.29999H9.50349" stroke="#0080EF" stroke-width="2" stroke-linecap="round" stroke-linejoin="round"/>
</svg>
