<svg width="21" height="20" viewBox="0 0 21 20" fill="none" xmlns="http://www.w3.org/2000/svg">
<g clip-path="url(#clip0_163_7963)">
<path d="M20.5449 15C20.5449 15.5894 20.3108 16.1546 19.894 16.5713C19.4773 16.9881 18.9121 17.2222 18.3227 17.2222H2.76714C2.17777 17.2222 1.61254 16.9881 1.1958 16.5713C0.779048 16.1546 0.544922 15.5894 0.544922 15V4.99999C0.544922 4.41062 0.779048 3.84539 1.1958 3.42864C1.61254 3.0119 2.17777 2.77777 2.76714 2.77777H18.3227C18.9121 2.77777 19.4773 3.0119 19.894 3.42864C20.3108 3.84539 20.5449 4.41062 20.5449 4.99999V15Z" fill="#C60A1D"/>
<path d="M0.544922 6.66669H20.5449V13.3334H0.544922V6.66669Z" fill="#FFC400"/>
<path d="M5.54492 9.44446V11.1111C5.54492 11.5532 5.72052 11.9771 6.03308 12.2896C6.34564 12.6022 6.76956 12.7778 7.21159 12.7778C7.65362 12.7778 8.07754 12.6022 8.3901 12.2896C8.70266 11.9771 8.87826 11.5532 8.87826 11.1111V9.44446H5.54492Z" fill="#EA596E"/>
<path d="M7.21191 8.88892H8.87858V10.5556H7.21191V8.88892Z" fill="#F4A2B2"/>
<path d="M5.54492 8.88892H7.21159V10.5556H5.54492V8.88892Z" fill="#DD2E44"/>
<path d="M7.21159 8.8889C8.13206 8.8889 8.87826 8.5158 8.87826 8.05556C8.87826 7.59533 8.13206 7.22223 7.21159 7.22223C6.29111 7.22223 5.54492 7.59533 5.54492 8.05556C5.54492 8.5158 6.29111 8.8889 7.21159 8.8889Z" fill="#EA596E"/>
<path d="M7.21159 8.05556C8.13206 8.05556 8.87826 7.86901 8.87826 7.6389C8.87826 7.40878 8.13206 7.22223 7.21159 7.22223C6.29111 7.22223 5.54492 7.40878 5.54492 7.6389C5.54492 7.86901 6.29111 8.05556 7.21159 8.05556Z" fill="#FFAC33"/>
<path d="M4.43359 8.88892H4.98915V12.7778H4.43359V8.88892ZM9.43359 8.88892H9.98915V12.7778H9.43359V8.88892Z" fill="#99AAB5"/>
<path d="M3.87793 12.2222H5.5446V12.7778H3.87793V12.2222ZM8.87793 12.2222H10.5446V12.7778H8.87793V12.2222ZM4.43349 8.33331H4.98904V8.88887H4.43349V8.33331ZM9.43349 8.33331H9.98904V8.88887H9.43349V8.33331Z" fill="#66757F"/>
</g>
<defs>
<clipPath id="clip0_163_7963">
<rect width="20" height="20" fill="white" transform="translate(0.544922)"/>
</clipPath>
</defs>
</svg>
