<svg width="6" height="23" viewBox="0 0 6 23" fill="none" xmlns="http://www.w3.org/2000/svg">
<path d="M0.5 20.25C0.5 21.625 1.625 22.75 3 22.75C4.375 22.75 5.5 21.625 5.5 20.25C5.5 18.875 4.375 17.75 3 17.75C1.625 17.75 0.5 18.875 0.5 20.25ZM0.5 2.75C0.5 4.125 1.625 5.25 3 5.25C4.375 5.25 5.5 4.125 5.5 2.75C5.5 1.375 4.375 0.25 3 0.25C1.625 0.25 0.5 1.375 0.5 2.75ZM0.5 11.5C0.5 12.875 1.625 14 3 14C4.375 14 5.5 12.875 5.5 11.5C5.5 10.125 4.375 9 3 9C1.625 9 0.5 10.125 0.5 11.5Z" fill="#0080EF"/>
</svg>
