<svg width="22" height="22" viewBox="0 0 22 22" fill="none" xmlns="http://www.w3.org/2000/svg">
<path fill-rule="evenodd" clip-rule="evenodd" d="M21.1593 4.2275L19.9893 3.9515L16.8273 7.0955L15.0363 5.2715L18.1203 2.036L17.8503 0.848003C17.1987 0.629502 16.517 0.514112 15.8298 0.506002C15.08 0.492738 14.3357 0.635775 13.6443 0.926003C12.9758 1.22764 12.3717 1.65546 11.8653 2.186C11.2997 2.71958 10.8525 3.36604 10.5528 4.0835C9.97329 5.50989 9.97329 7.10612 10.5528 8.5325C7.42561 11.609 4.33885 14.7262 1.2933 17.8835C0.978297 18.296 0.828297 18.8105 0.867297 19.328C0.882275 19.6037 0.951456 19.8737 1.07088 20.1225C1.19031 20.3714 1.35764 20.5943 1.5633 20.7785C1.7513 20.9835 1.9698 21.1475 2.2188 21.2705C2.4738 21.383 2.7483 21.4475 3.0258 21.461C3.4998 21.452 3.9543 21.272 4.3068 20.9555C6.6288 18.77 11.0778 14.2805 13.6053 11.6495C14.2908 11.9405 15.0273 12.0905 15.7713 12.089C16.5202 12.0881 17.2613 11.9372 17.9509 11.6453C18.6406 11.3535 19.2648 10.9265 19.7868 10.3895C20.8566 9.29504 21.4548 7.82494 21.4533 6.2945C21.4709 5.59395 21.3716 4.89536 21.1593 4.2275ZM3.3993 19.892C3.34194 19.9438 3.27219 19.98 3.1968 19.997C3.12295 20.011 3.04714 20.011 2.9733 19.997C2.89582 19.985 2.82201 19.9558 2.7573 19.9115C2.6881 19.8707 2.62951 19.8142 2.5863 19.7465C2.3763 19.532 2.1798 19.124 2.3763 18.8945C4.4313 16.709 8.6628 12.437 11.3088 9.8255C11.4588 10.0245 11.6228 10.2125 11.8008 10.3895C11.9778 10.5745 12.1678 10.745 12.3708 10.901C9.8118 13.526 5.6373 17.747 3.3993 19.892ZM20.0763 6.2945C20.0793 7.442 19.6323 8.5445 18.8283 9.3665C18.0262 10.1539 16.9471 10.595 15.823 10.595C14.699 10.595 13.6199 10.1539 12.8178 9.3665C12.2295 8.75304 11.8276 7.98502 11.6589 7.15193C11.4903 6.31884 11.5619 5.45498 11.8653 4.661C12.0672 4.1207 12.3802 3.62874 12.784 3.21689C13.1878 2.80505 13.6736 2.48248 14.2098 2.27C14.7195 2.0584 15.2659 1.94932 15.8178 1.949H16.1988L13.4733 4.7585V5.8025L16.3158 8.6315H17.3058L20.0763 5.9075V6.2945ZM3.8598 9.032H6.1563L7.2138 10.1075L8.2308 9.0965L7.2333 8.0795V8.015L7.3188 5.5415L6.9888 4.886L2.6988 2.063L1.8123 2.162L0.565797 3.4355L0.466797 4.334L3.2238 8.711L3.8598 9.032ZM2.4423 3.584L5.9133 5.87L5.8548 7.5545H4.2408L2.0028 4.0115L2.4423 3.584ZM13.0998 14.024L14.1108 13.0145L18.7698 17.792C19.1619 18.2046 19.3805 18.7521 19.3805 19.3213C19.3805 19.8904 19.1619 20.4379 18.7698 20.8505C18.4752 21.1542 18.0957 21.3617 17.6811 21.446C17.2665 21.5304 16.8361 21.4875 16.4463 21.323C16.1972 21.213 15.9739 21.052 15.7908 20.8505L11.0778 16.046L12.0963 15.029L16.7943 19.82C16.8574 19.8898 16.936 19.9437 17.0238 19.9775C17.1965 20.0472 17.3896 20.0472 17.5623 19.9775C17.6501 19.9437 17.7287 19.8898 17.7918 19.82C17.8588 19.7561 17.9102 19.6776 17.9418 19.5905C17.977 19.5027 17.9954 19.4091 17.9958 19.3145C17.9929 19.2203 17.9751 19.1272 17.9433 19.0385C17.9117 18.9515 17.8603 18.8729 17.7933 18.809L13.0998 14.024Z" fill="#0080EF"/>
</svg>
