<svg width="17" height="19" viewBox="0 0 17 19" fill="none" xmlns="http://www.w3.org/2000/svg">
<g id="Group 20">
<path id="Vector" d="M5.52516 1.91385C5.56696 2.04029 5.55484 2.06699 5.51177 2.18874C5.50013 2.22257 5.48849 2.2564 5.4765 2.29125C5.45707 2.34635 5.45707 2.34635 5.43724 2.40255C5.34887 2.65677 5.26694 2.90973 5.20182 3.17113C5.19024 3.21653 5.17866 3.26194 5.16673 3.30872C5.14465 3.39683 5.12364 3.48522 5.10384 3.57387C5.03415 3.84676 4.95235 3.97552 4.7108 4.12093C4.66757 4.14458 4.66757 4.14458 4.62348 4.16871C4.58782 4.19149 4.55216 4.21428 4.51542 4.23775C4.48636 4.25547 4.4573 4.27319 4.42737 4.29145C3.08138 5.14926 2.11756 6.60484 1.75146 8.15644C1.52117 9.20275 1.50108 10.3223 1.73811 11.3697C1.74584 11.404 1.75357 11.4383 1.76154 11.4737C2.03895 12.663 2.5936 13.8182 3.46933 14.6793C3.49314 14.6793 3.51694 14.6793 3.54147 14.6793C3.58543 14.6262 3.62711 14.5713 3.6677 14.5156C3.97084 14.1254 4.34992 13.8742 4.83988 13.8064C5.25397 13.7671 5.63553 13.8663 5.95796 14.1337C6.03413 14.2038 6.10409 14.2756 6.17437 14.3519C6.10747 14.1283 6.10747 14.1283 6.00079 13.9223C5.97959 13.883 5.97959 13.883 5.95796 13.8428C6.00087 13.722 6.06439 13.6615 6.1631 13.5836C6.94365 12.909 6.97419 11.6394 7.07604 10.7151C7.84968 10.7151 8.62332 10.7151 9.42041 10.7151C9.44421 11.0031 9.46801 11.2911 9.49254 11.5879C9.61282 12.3282 9.75744 13.0849 10.3221 13.6246C10.4202 13.6957 10.4202 13.6957 10.5024 13.7337C10.4833 13.8878 10.4252 14.0042 10.3524 14.1386C10.3147 14.2106 10.3147 14.2106 10.3221 14.3156C10.3422 14.2963 10.3623 14.2769 10.3829 14.257C10.7222 13.9403 11.056 13.7856 11.5241 13.7973C11.9915 13.8414 12.3308 14.0319 12.6664 14.3519C12.6796 14.3322 12.6927 14.3125 12.7062 14.2921C12.8192 14.13 12.9048 14.0122 13.0993 13.9519C13.2732 13.9374 13.4358 13.9397 13.6042 13.9882C13.6141 13.9622 13.6239 13.9362 13.6341 13.9094C13.6761 13.807 13.7235 13.7106 13.7745 13.6125C14.7319 11.7447 15.2498 9.5851 14.6346 7.5186C14.4346 6.88542 14.1373 6.27917 13.7124 5.76893C13.6778 5.72631 13.6433 5.68369 13.6087 5.64107C13.0891 5.00793 12.3324 4.33169 11.5474 4.0579C11.3891 3.95302 11.3703 3.82843 11.3228 3.64946C11.3083 3.59918 11.3083 3.59918 11.2935 3.54788C11.2627 3.4406 11.233 3.33303 11.2035 3.22539C11.164 3.08478 11.124 2.94431 11.0839 2.80389C11.0696 2.75346 11.0696 2.75346 11.055 2.70202C10.9912 2.48062 10.9171 2.27098 10.8222 2.06095C10.791 1.98659 10.791 1.98659 10.791 1.91385C12.6807 2.43176 14.3403 3.84531 15.3192 5.53029C16.4324 7.51378 16.6404 9.87688 16.0658 12.063C15.7233 13.3079 15.1303 14.4886 14.2533 15.4376C14.1876 15.5088 14.1258 15.582 14.064 15.6567C12.6994 17.2248 10.611 17.9477 8.6034 18.0858C6.47 18.2117 4.34258 17.498 2.74292 16.0696C1.08332 14.5677 0.150336 12.4293 0.011964 10.1968C-0.0872153 8.24109 0.42833 6.23734 1.62991 4.67787C1.64525 4.65778 1.6606 4.63769 1.6764 4.61699C2.14284 4.01428 2.7029 3.47682 3.32507 3.04128C3.36227 3.01516 3.36227 3.01516 3.40023 2.98852C4.06564 2.52702 4.772 2.20312 5.52516 1.91385Z" fill="#323233"/>
<path id="Vector_2" d="M8.30237 0.20449C9.42112 0.748015 10.1782 2.00777 10.5823 3.14069C10.7581 3.65279 10.8718 4.17627 10.9353 4.71421C10.9391 4.74638 10.943 4.77856 10.9469 4.81172C10.9681 5.01924 10.9707 5.21898 10.9596 5.42737C10.9071 6.07943 10.9071 6.07943 11.172 6.65084C11.2298 6.71504 11.2889 6.77718 11.35 6.83826C11.4352 6.92964 11.4913 7.02832 11.5529 7.13727C11.5716 7.16999 11.5903 7.20272 11.6096 7.23643C11.6974 7.41618 11.7395 7.56052 11.7212 7.76104C11.7152 7.82835 11.7152 7.82835 11.7091 7.89701C11.7037 7.95139 11.6982 8.00576 11.6927 8.06012C11.688 8.10788 11.688 8.10788 11.6832 8.15661C11.6557 8.43466 11.6265 8.71252 11.597 8.99037C11.5924 9.03435 11.5877 9.07833 11.5829 9.12364C11.5584 9.35554 11.5337 9.58742 11.509 9.8193C11.4835 10.059 11.4583 10.2987 11.4332 10.5384C11.4138 10.7229 11.3942 10.9074 11.3745 11.0919C11.365 11.1804 11.3557 11.2688 11.3465 11.3573C11.3337 11.4803 11.3205 11.6033 11.3072 11.7263C11.3035 11.763 11.2998 11.7997 11.2959 11.8375C11.2922 11.8708 11.2885 11.9041 11.2847 11.9385C11.2817 11.9675 11.2786 11.9966 11.2754 12.0265C11.2599 12.097 11.2599 12.097 11.1877 12.1698C11.1167 12.1643 11.1167 12.1643 11.0435 12.1334C10.9951 12.0763 10.9951 12.0763 10.9534 12.0035C10.9382 11.9771 10.9229 11.9508 10.9072 11.9236C10.8415 11.8026 10.7781 11.6808 10.7175 11.5571C10.7044 11.5306 10.6913 11.5042 10.6778 11.477C10.6357 11.3921 10.5939 11.307 10.5521 11.2219C10.5231 11.1633 10.4941 11.1046 10.4651 11.0459C10.2549 10.6197 10.0486 10.1917 9.8474 9.76098C9.82582 9.71507 9.80366 9.66943 9.78112 9.62398C9.75281 9.65684 9.72449 9.68971 9.69532 9.72357C9.65707 9.76692 9.61879 9.81025 9.5805 9.85356C9.56197 9.87519 9.54344 9.89683 9.52435 9.91912C9.50564 9.9401 9.48693 9.96108 9.46765 9.98269C9.45084 10.0019 9.43403 10.0212 9.41671 10.041C9.1907 10.2253 8.95784 10.2229 8.67896 10.2229C8.63917 10.2232 8.59939 10.2235 8.5584 10.2238C8.47452 10.2242 8.39064 10.2243 8.30676 10.2241C8.17892 10.2241 8.05115 10.2256 7.92331 10.2272C7.84157 10.2274 7.75984 10.2275 7.6781 10.2275C7.62117 10.2284 7.62117 10.2284 7.56309 10.2293C7.27085 10.2265 7.10728 10.1437 6.88829 9.9557C6.86918 9.93549 6.85007 9.91529 6.83038 9.89447C6.81081 9.87417 6.79123 9.85387 6.77107 9.83296C6.71235 9.76595 6.66005 9.69575 6.60722 9.62398C6.50114 9.83682 6.39521 10.0497 6.28937 10.2627C6.26591 10.3099 6.26591 10.3099 6.24196 10.3581C6.03909 10.7664 5.83784 11.1751 5.64738 11.5895C5.40674 12.1075 5.40674 12.1075 5.27169 12.164C5.24823 12.1659 5.22477 12.1678 5.2006 12.1698C5.10267 12.071 5.11057 12.0043 5.09588 11.866C5.09325 11.8421 5.09062 11.8182 5.08791 11.7936C5.07916 11.7134 5.07085 11.6332 5.06253 11.5529C5.05638 11.4959 5.0502 11.4388 5.04398 11.3817C5.03072 11.2595 5.01762 11.1373 5.00463 11.015C4.98438 10.825 4.96336 10.635 4.94214 10.4451C4.90959 10.1535 4.87735 9.86185 4.84539 9.57019C4.82715 9.40372 4.80883 9.23727 4.79035 9.07083C4.77202 8.90573 4.75387 8.7406 4.73583 8.57547C4.72905 8.51361 4.72221 8.45176 4.7153 8.38991C4.62 7.53571 4.62 7.53571 4.77456 7.24183C4.79307 7.20405 4.79307 7.20405 4.81196 7.16551C4.88432 7.02593 4.96072 6.91357 5.07169 6.80242C5.35715 6.5088 5.44583 6.26787 5.4438 5.85931C5.43976 5.66388 5.43193 5.46856 5.4234 5.27328C5.40912 4.91108 5.45777 4.5602 5.5252 4.20504C5.5312 4.17334 5.5372 4.14163 5.54338 4.10896C5.8358 2.62668 6.56906 1.27748 7.79743 0.386333C7.82653 0.364909 7.85564 0.343484 7.88563 0.32141C8.03186 0.220766 8.12695 0.18678 8.30237 0.20449ZM7.13019 4.31046C6.91896 4.60888 6.81448 4.96549 6.85969 5.33247C6.94578 5.72907 7.08974 6.06992 7.42986 6.3042C7.7769 6.5088 8.1428 6.58314 8.53737 6.48874C8.78527 6.40896 8.99919 6.29951 9.16798 6.09622C9.19518 6.06422 9.19518 6.06422 9.22293 6.03158C9.46721 5.72817 9.55313 5.37325 9.5209 4.98441C9.46451 4.6389 9.30188 4.28577 9.01822 4.07449C8.40332 3.67386 7.61047 3.71181 7.13019 4.31046Z" fill="#323233"/>
<path id="Vector_3" d="M7.07608 10.7151C7.84972 10.7151 8.62336 10.7151 9.42044 10.7151C9.45615 11.1471 9.45615 11.1471 9.49258 11.5879C9.61286 12.3282 9.75747 13.0849 10.3221 13.6246C10.4202 13.6957 10.4202 13.6957 10.5025 13.7337C10.4833 13.8878 10.4252 14.0042 10.3524 14.1385C10.3147 14.2106 10.3147 14.2106 10.3221 14.3156C10.3422 14.2962 10.3623 14.2769 10.383 14.257C10.7223 13.9403 11.056 13.7856 11.5242 13.7973C11.9916 13.8414 12.3308 14.0319 12.6665 14.3519C12.6796 14.3322 12.6927 14.3125 12.7062 14.2921C12.8192 14.13 12.9049 14.0122 13.0993 13.9519C13.4101 13.9267 13.4101 13.9267 13.5321 13.9882C13.3967 14.2968 13.1258 14.5608 12.8829 14.7883C12.8633 14.8071 12.8436 14.8258 12.8234 14.845C12.1988 15.4185 11.4862 15.8254 10.7189 16.1704C10.6823 16.187 10.6823 16.187 10.645 16.204C9.19155 16.854 7.32157 16.8056 5.8498 16.2431C5.81828 16.2314 5.78675 16.2197 5.75428 16.2077C5.00787 15.9136 4.36744 15.488 3.75791 14.9702C3.71359 14.9331 3.66926 14.8959 3.62491 14.8588C3.58362 14.8239 3.58362 14.8239 3.5415 14.7883C3.56813 14.5319 3.76042 14.3758 3.93824 14.2064C4.15999 14.0332 4.38794 13.9128 4.65958 13.8428C4.6886 13.8345 4.71761 13.8263 4.7475 13.8178C5.15719 13.7674 5.54767 13.8261 5.88657 14.0745C5.9905 14.1607 6.08284 14.2525 6.1744 14.3519C6.1075 14.1283 6.1075 14.1283 6.00083 13.9223C5.9867 13.8961 5.97256 13.8698 5.958 13.8428C6.00091 13.722 6.06443 13.6615 6.16313 13.5836C6.94369 12.909 6.97422 11.6394 7.07608 10.7151Z" fill="#0080EF"/>
</g>
</svg>
