<svg width="22" height="22" viewBox="0 0 22 22" fill="none" xmlns="http://www.w3.org/2000/svg">
<path d="M10 1H8C3 1 1 3 1 8V14C1 19 3 21 8 21H14C19 21 21 19 21 14V12" stroke="#0080EF" stroke-width="1.5" stroke-linecap="round" stroke-linejoin="round"/>
<path d="M15.0399 2.02L7.15988 9.9C6.85988 10.2 6.55988 10.79 6.49988 11.22L6.06988 14.23C5.90988 15.32 6.67988 16.08 7.76988 15.93L10.7799 15.5C11.1999 15.44 11.7899 15.14 12.0999 14.84L19.9799 6.96C21.3399 5.6 21.9799 4.02 19.9799 2.02C17.9799 0.0200009 16.3999 0.660001 15.0399 2.02Z" stroke="#0080EF" stroke-width="1.5" stroke-miterlimit="10" stroke-linecap="round" stroke-linejoin="round"/>
<path d="M13.9102 3.15C14.5802 5.54 16.4502 7.41 18.8502 8.09" stroke="#0080EF" stroke-width="1.5" stroke-miterlimit="10" stroke-linecap="round" stroke-linejoin="round"/>
</svg>
