<svg width="20" height="19" viewBox="0 0 20 19" fill="none" xmlns="http://www.w3.org/2000/svg">
<path d="M10.1303 3.16663C10.5531 3.169 11.6108 3.17929 12.7349 3.22442L13.1339 3.24183C14.2652 3.29488 15.3957 3.38671 15.957 3.54267C16.7051 3.75325 17.2926 4.366 17.4913 5.14342C17.8079 6.37842 17.8475 8.78667 17.8523 9.37013L17.8531 9.49046V9.62821C17.8475 10.2117 17.8079 12.6207 17.4913 13.8549C17.2902 14.6347 16.702 15.2483 15.957 15.4557C15.3957 15.6116 14.2652 15.7035 13.1339 15.7565L12.7349 15.7747C11.6108 15.819 10.5531 15.8301 10.1303 15.8317L9.9443 15.8325H9.74242C8.84784 15.827 5.10642 15.7866 3.91576 15.4557C3.16842 15.2451 2.58022 14.6323 2.38151 13.8549C2.06484 12.6199 2.02526 10.2117 2.02051 9.62821V9.37013C2.02526 8.78667 2.06484 6.37763 2.38151 5.14342C2.58259 4.36363 3.1708 3.75008 3.91655 3.54346C5.10642 3.21175 8.84863 3.17138 9.74322 3.16663H10.1303ZM8.35305 6.72913V12.2708L13.103 9.49996L8.35305 6.72913Z" fill="#0080EF"/>
</svg>
